<?xml version="1.0" encoding="UTF-8"?>
<!-- Generator: Adobe Illustrator 24.1.0, SVG Export Plug-In . SVG Version: 6.00 Build 0)  -->
<svg version="1.1" id="Calque_1" xmlns="http://www.w3.org/2000/svg" xmlns:xlink="http://www.w3.org/1999/xlink" x="0px" y="0px" viewBox="0 0 200 200" style="enable-background:new 0 0 200 200;" xml:space="preserve"><link xmlns="" type="text/css" rel="stylesheet" id="dark-mode-custom-link"/><link xmlns="" type="text/css" rel="stylesheet" id="dark-mode-general-link"/><style xmlns="" lang="en" type="text/css" id="dark-mode-custom-style"/><style xmlns="" lang="en" type="text/css" id="dark-mode-native-style"/>
<style type="text/css">
	.st0{fill:url(#SVGID_1_);}
	.st1{fill:#FFFFFF;}
</style>
<g>
	
		<radialGradient id="SVGID_1_" cx="23.0653" cy="179.216" r="194.3085" gradientTransform="matrix(1 0 0 -0.995 0 200.575)" gradientUnits="userSpaceOnUse">
		<stop offset="0" style="stop-color:#FFC300"/>
		<stop offset="0.3271" style="stop-color:#FB623E"/>
		<stop offset="0.7871" style="stop-color:#CE007C"/>
		<stop offset="0.9765" style="stop-color:#CE007C"/>
	</radialGradient>
	<path class="st0" d="M167.1,199.5H32.9C14.7,199.5,0,184.8,0,166.6V33.4C0,15.2,14.7,0.5,32.9,0.5h134.2   c18.2,0,32.9,14.7,32.9,32.9v133.2C200,184.8,185.3,199.5,167.1,199.5z"/>
</g>
<g id="LOGO_2_">
	<path class="st1" d="M99.6,77c-1,17.9-7.7,23.7-10.6,25.4c-2.7-1.7-9.6-7.5-10.7-25.4c0,0-2.6-0.9-4.8-0.7   c-2.4,0.3-4.3,1.3-4.3,1.3c0.8,12,3.9,21.2,9.4,27.6c4.5,5.1,8.8,6.4,9.3,6.5l1.2,0.3l1.2-0.3c0.5-0.1,4.8-1.4,9.3-6.5   c5.4-6.4,8.5-15.7,9.2-27.6c0,0-2-1-4.2-1.2C102.2,76.1,99.6,77,99.6,77"/>
	<path class="st1" d="M131.4,109c1-17.9,7.7-23.7,10.6-25.4c2.7,1.7,9.6,7.5,10.7,25.4c0,0,2.7,0.9,4.8,0.7c2.4-0.3,4.3-1.3,4.3-1.3   c-0.8-12-3.9-21.3-9.4-27.6c-4.5-5.1-8.8-6.4-9.3-6.5l-1.2-0.3l-1.3,0.3c-0.5,0.1-4.8,1.4-9.3,6.5c-5.4,6.4-8.5,15.7-9.2,27.6   c0,0,2,1.2,4.2,1.3C128.8,110,131.4,109,131.4,109"/>
	<path class="st1" d="M58,77.8l0.1,30.9c0,0,1.7,0.9,4.6,0.9c2.7,0,4.6-0.9,4.6-0.9l-0.1-30.9c0,0-2-1-4.7-1   C59.9,76.8,58,77.8,58,77.8"/>
	<path class="st1" d="M110.9,77.6l0.1,30.9c0,0,1.7,0.9,4.6,0.9c2.7,0,4.6-0.9,4.6-0.9L120,77.6c0,0-2-1-4.7-1   C112.7,76.5,110.9,77.6,110.9,77.6"/>
	<path class="st1" d="M49.3,82.7c-6.4-5.4-15.7-8.5-27.6-9.2c0,0-1.2,2-1.3,4.2c-0.4,2.3,0.7,4.8,0.7,4.8c17.8,1,23.7,7.7,25.4,10.6   c-1.7,2.7-7.5,9.6-25.4,10.7c0,0-0.9,2.6-0.7,4.8c0.3,2.4,1.3,4.3,1.3,4.3c11.9-0.8,21.2-3.9,27.6-9.4c5.1-4.5,6.4-8.8,6.5-9.3   l0.3-1.2l-0.3-1.2C55.7,91.4,54.4,87,49.3,82.7"/>
	<path class="st1" d="M166,95c0.4-0.1,0.9-0.3,0.9-0.1s-0.3,0.3-0.7,0.3c-0.4,0.1-0.9,0.1-0.9,0.1S165.6,95,166,95 M139,93.3h0.8   c0,0-0.1,0.3,0.1,0.3c0.3,0,0.5-0.1,0.5-0.1s3.3,0.4,5.8,0.5s4.1-0.1,5.5-0.3c17.1-2.4,31.2-6.4,31.2-6.4s-1.2,0.8-1.3,0.8   s-0.3,0.3-0.4,0.3c-0.1,0-1.8,0.8-2,0.8c-0.3,0-1.2,0.4-1.2,0.4l-0.9,0.7c0,0-0.7,0-0.8,0c-0.4,0.1-0.1,0.4-0.1,0.4   s-0.7,0.1-0.9,0.3c-0.3,0.1-0.5,0.4-0.5,0.4s-0.1,0-0.4,0.1c-0.3,0.1-0.7,0.4-0.7,0.4s-0.3,0-0.4,0.1c-0.1,0.1-0.1,0.3-0.1,0.3   s0.1,0.1,0.4,0.1s-0.6,0.1-1,0.1c-0.3,0-0.7,0.4-0.8,0.4s-0.5,0.1-0.7,0.3c-0.1,0.1-0.3,0.3-0.3,0.3s0.5,0,0.7-0.1   c0.1-0.1-0.4,0.4-0.5,0.4s0,0.1-0.3,0.1s-0.5,0.3-0.7,0.4c-0.1,0.3-0.9,0.1-1,0.1c-0.3,0.1-0.3,0.3-0.4,0.3c-0.3,0-1,0.1-1.2,0.3   c-0.5,0.1,0.4,0.3,0.3,0.4c-0.1,0.1-1.3,0.4-1.6,0.5s-0.7,0.4-0.7,0.4s-0.1-0.1-0.3-0.1c-0.1,0.1,0.1,0.1-0.3,0.3   c-0.3,0-2,0.7-2.2,0.7c-0.3,0-0.5,0-0.5,0s-0.8,0.1-0.8,0.3s-1.4,0.5-1.6,0.7c-0.1,0.1-1.2,0.9-1.4,0.8c-0.3,0-0.4,0.3-0.4,0.3   l-0.8,0.1c0,0-0.4,0.3-0.5,0.4s-0.7,0-0.7,0.1s-0.1,0.4-0.3,0.4c-0.1,0.1-0.4,0.1-0.5,0.1s0.1,0.3-0.1,0.4c-0.3,0-4.7,0.8-5.6,0.5   c-0.9-0.1-3.3,0-6.4-1.4c-2-0.9-3.8-5.6-3.8-5.6L139,93.3z"/>
</g>
<path class="st1" d="M127.2,125.3c0.2-0.1,0.4-0.1,0.4-0.1S127.5,125.3,127.2,125.3c-0.1,0.1-0.3,0.1-0.3,0.1S127,125.3,127.2,125.3   M115,124.5h0.4c0,0-0.1,0.1,0.1,0.1c0.1,0,0.2-0.1,0.2-0.1s1.5,0.2,2.6,0.2s1.8-0.1,2.5-0.1c7.8-1.1,14.1-2.9,14.1-2.9  s-0.5,0.4-0.6,0.4s-0.1,0.1-0.2,0.1s-0.8,0.4-0.9,0.4c-0.1,0-0.5,0.2-0.5,0.2l-0.4,0.3c0,0-0.3,0-0.4,0c-0.2,0.1-0.1,0.2-0.1,0.2  s-0.3,0.1-0.4,0.1c-0.1,0.1-0.2,0.2-0.2,0.2s-0.1,0-0.2,0.1c-0.1,0.1-0.3,0.2-0.3,0.2s-0.1,0-0.2,0.1c-0.1,0.1-0.1,0.1-0.1,0.1  s0.1,0.1,0.2,0.1c0.1,0-0.2,0.1-0.4,0.1c-0.1,0-0.3,0.2-0.4,0.2s-0.2,0.1-0.3,0.1s-0.1,0.1-0.1,0.1s0.2,0,0.3-0.1s-0.2,0.2-0.2,0.2  s0,0.1-0.1,0.1s-0.2,0.1-0.3,0.2s-0.4,0.1-0.5,0.1c-0.1,0.1-0.1,0.1-0.2,0.1c-0.1,0-0.5,0.1-0.5,0.1c-0.2,0.1,0.2,0.1,0.1,0.2  c-0.1,0.1-0.6,0.2-0.7,0.2c-0.1,0.1-0.3,0.2-0.3,0.2l-0.1-0.1c-0.1,0.1,0.1,0.1-0.1,0.1c-0.1,0-0.9,0.3-1,0.3s-0.2,0-0.2,0l-0.4,0.1  c0,0.1-0.7,0.2-0.7,0.3c-0.1,0.1-0.5,0.4-0.7,0.4c-0.1,0-0.2,0.1-0.2,0.1l-0.4,0.1c0,0-0.2,0.1-0.2,0.2c-0.1,0.1-0.3,0-0.3,0.1  s-0.1,0.2-0.1,0.2c-0.1,0.1-0.2,0.1-0.2,0.1c-0.1,0,0.1,0.1-0.1,0.2c-0.1,0-2.1,0.4-2.6,0.2c-0.4-0.1-1.5,0-2.9-0.7  c-0.9-0.4-1.7-2.6-1.7-2.6L115,124.5z"/>
<path class="st1" d="M124,127.2c0,0.2,0,0.4,0,0.4C123.9,127.6,123.9,127.5,124,127.2c-0.1-0.1-0.1-0.3-0.1-0.3S124,127,124,127.2   M127.3,115.4l-0.1,0.3c0,0-0.1-0.1-0.1,0s0,0.2,0,0.2s-0.5,1.4-0.8,2.5s-0.3,1.8-0.4,2.5c-0.6,7.8-0.2,14.4-0.2,14.4  s-0.2-0.6-0.2-0.7c0-0.1-0.1-0.1-0.1-0.2s-0.2-0.9-0.2-0.9c0-0.1-0.1-0.6-0.1-0.6l-0.2-0.5l0.1-0.3c0-0.2-0.2-0.1-0.2-0.1  s0-0.3,0-0.4c0-0.1-0.1-0.3-0.1-0.3s0-0.1,0-0.2c0-0.1-0.1-0.3-0.1-0.3s0-0.1,0-0.2c0-0.1-0.1-0.1-0.1-0.1s-0.1,0-0.1,0.2  c0,0.1-0.1-0.3,0-0.4c0-0.1-0.1-0.3-0.1-0.4s0-0.2-0.1-0.3c0-0.1-0.1-0.1-0.1-0.1s-0.1,0.2,0,0.3c0,0.1-0.1-0.2-0.1-0.3  s-0.1,0,0-0.1c0-0.1-0.1-0.3-0.1-0.3c-0.1-0.1,0-0.4,0-0.5s-0.1-0.1-0.1-0.2c0-0.1,0-0.5,0-0.5c0-0.2-0.2,0.1-0.2,0.1  c0-0.1,0-0.6-0.1-0.7c0-0.1-0.1-0.3-0.1-0.3s0.1,0,0.1-0.1s-0.1,0-0.1-0.1s-0.1-0.9-0.1-1s0.1-0.2,0.1-0.2v-0.4  c-0.1,0-0.1-0.7-0.1-0.8c0-0.1-0.3-0.6-0.2-0.7c0-0.1-0.1-0.2-0.1-0.2v-0.4c0,0-0.1-0.2-0.1-0.3c0-0.1,0.1-0.3,0-0.3  s-0.2-0.1-0.1-0.2c0-0.1,0-0.2,0-0.2c0-0.1-0.1,0-0.2-0.1c0-0.1,0.1-2.2,0.3-2.5c0.1-0.4,0.3-1.4,1.3-2.7c0.6-0.8,2.9-1.1,2.9-1.1  L127.3,115.4z"/>
<g>
	<path class="st1" d="M81.2,118.5h5.3c2.1,0,3.3,1.3,3.3,3c0,1.5-1,2.5-2.1,2.7c1.3,0.2,2.3,1.5,2.3,2.9c0,1.9-1.3,3.2-3.5,3.2h-5.4   L81.2,118.5L81.2,118.5z M86.3,123.7c1.3,0,2.1-0.8,2.1-1.9s-0.7-1.9-2.1-1.9h-3.6v3.8H86.3z M86.3,129.1c1.4,0,2.2-0.8,2.2-2.1   c0-1.1-0.8-2.1-2.2-2.1h-3.7v4.1L86.3,129.1L86.3,129.1z"/>
	<path class="st1" d="M98.2,129.2c-0.7,0.8-1.8,1.4-3.1,1.4c-1.8,0-2.8-0.9-2.8-2.8v-6.1h1.3v5.7c0,1.5,0.8,2,1.9,2s2.1-0.6,2.6-1.3   v-6.4h1.3v8.6h-1.3L98.2,129.2L98.2,129.2z"/>
	<path class="st1" d="M102.2,128.3c0.6,0.7,1.7,1.2,2.8,1.2c1.3,0,2-0.6,2-1.4c0-0.9-1.1-1.3-2.2-1.5c-1.5-0.3-3.1-0.7-3.1-2.5   c0-1.3,1.2-2.5,3.2-2.5c1.5,0,2.5,0.6,3.2,1.3l-0.6,0.9c-0.5-0.6-1.5-1.1-2.6-1.1c-1.2,0-1.9,0.5-1.9,1.3s1,1.1,2.1,1.4   c1.5,0.3,3.2,0.8,3.2,2.7c0,1.4-1.2,2.6-3.4,2.6c-1.4,0-2.6-0.4-3.5-1.4L102.2,128.3z"/>
</g>
<g>
	<path class="st1" d="M143.4,119.8h-3.8v-1.3h9.1v1.3h-3.8v10.7h-1.5V119.8z"/>
	<path class="st1" d="M149.1,121.8h1.3v1.4c0.7-0.9,1.7-1.6,2.9-1.6v1.4c-0.2,0-0.3-0.1-0.5-0.1c-0.8,0-2,0.7-2.3,1.4v6.1h-1.3   L149.1,121.8L149.1,121.8z"/>
	<path class="st1" d="M160.4,129.5c-0.7,0.8-1.7,1.2-2.9,1.2c-1.5,0-3-1-3-2.9c0-1.9,1.6-2.8,3-2.8c1.2,0,2.2,0.4,2.9,1.2v-1.6   c0-1.2-0.9-1.8-2.2-1.8c-1,0-1.9,0.4-2.6,1.2l-0.6-0.9c0.9-1,2-1.4,3.5-1.4c1.8,0,3.3,0.8,3.3,2.9v5.9h-1.3L160.4,129.5   L160.4,129.5z M160.4,127c-0.5-0.7-1.4-1.1-2.4-1.1c-1.3,0-2.1,0.8-2.1,1.9c0,1.1,0.9,1.9,2.1,1.9c0.9,0,1.9-0.4,2.4-1.1V127z"/>
	<path class="st1" d="M174.8,124.6c0-1.1-0.5-1.8-1.6-1.8c-0.9,0-1.8,0.6-2.3,1.3v6.3h-1.3v-5.9c0-1.1-0.5-1.8-1.6-1.8   c-0.9,0-1.8,0.6-2.3,1.3v6.3h-1.3v-8.6h1.3v1.3c0.4-0.6,1.5-1.5,2.8-1.5s2.1,0.7,2.3,1.6c0.5-0.8,1.6-1.6,2.9-1.6   c1.6,0,2.4,0.9,2.4,2.6v6.2h-1.3L174.8,124.6L174.8,124.6z"/>
</g>
</svg>